<svg width="154.000000" height="48.000000" viewBox="0 0 154 48" fill="none" xmlns="http://www.w3.org/2000/svg" xmlns:xlink="http://www.w3.org/1999/xlink">
	<desc>
			Created with Pixso.
	</desc>
	<defs>
		<clipPath id="clip32_890">
			<rect id="Airbnb Logo" width="153.191498" height="48.000000" fill="white" fill-opacity="0"/>
		</clipPath>
	</defs>
	<rect id="Airbnb Logo" width="153.191498" height="48.000000" fill="#FFFFFF" fill-opacity="0"/>
	<g clip-path="url(#clip32_890)">
		<path id="Vector" d="M80.73 12.06C80.73 13.78 79.34 15.18 77.62 15.18C75.9 15.18 74.51 13.78 74.51 12.06C74.51 10.33 75.85 8.93 77.62 8.93C79.39 8.98 80.73 10.37 80.73 12.06ZM67.9 18.35C67.9 18.64 67.9 19.12 67.9 19.12C67.9 19.12 66.42 17.2 63.26 17.2C58.05 17.2 53.98 21.18 53.98 26.71C53.98 32.19 58 36.22 63.26 36.22C66.47 36.22 67.9 34.25 67.9 34.25L67.9 35.07C67.9 35.45 68.19 35.74 68.57 35.74L72.45 35.74L72.45 17.68C72.45 17.68 68.91 17.68 68.57 17.68C68.19 17.68 67.9 18.01 67.9 18.35ZM67.9 29.93C67.19 30.99 65.75 31.9 64.03 31.9C60.97 31.9 58.62 29.98 58.62 26.71C58.62 23.44 60.97 21.52 64.03 21.52C65.7 21.52 67.23 22.48 67.9 23.49L67.9 29.93ZM75.32 17.68L79.92 17.68L79.92 35.74L75.32 35.74L75.32 17.68ZM143.95 17.2C140.79 17.2 139.31 19.12 139.31 19.12L139.31 8.98L134.71 8.98L134.71 35.74C134.71 35.74 138.25 35.74 138.59 35.74C138.97 35.74 139.26 35.41 139.26 35.07L139.26 34.25C139.26 34.25 140.74 36.22 143.9 36.22C149.12 36.22 153.19 32.19 153.19 26.71C153.19 21.23 149.12 17.2 143.95 17.2ZM143.18 31.85C141.41 31.85 140.03 30.94 139.31 29.88L139.31 23.44C140.03 22.48 141.56 21.47 143.18 21.47C146.25 21.47 148.59 23.39 148.59 26.66C148.59 29.93 146.25 31.85 143.18 31.85ZM132.32 25.03L132.32 35.79L127.73 35.79L127.73 25.56C127.73 22.58 126.77 21.38 124.19 21.38C122.8 21.38 121.36 22.1 120.45 23.15L120.45 35.74L115.86 35.74L115.86 17.68L119.5 17.68C119.88 17.68 120.17 18.01 120.17 18.35L120.17 19.12C121.51 17.72 123.28 17.2 125.05 17.2C127.06 17.2 128.73 17.77 130.07 18.93C131.7 20.27 132.32 22 132.32 25.03ZM104.71 17.2C101.55 17.2 100.07 19.12 100.07 19.12L100.07 8.98L95.47 8.98L95.47 35.74C95.47 35.74 99.01 35.74 99.35 35.74C99.73 35.74 100.02 35.41 100.02 35.07L100.02 34.25C100.02 34.25 101.5 36.22 104.66 36.22C109.88 36.22 113.94 32.19 113.94 26.71C113.99 21.23 109.92 17.2 104.71 17.2ZM103.94 31.85C102.17 31.85 100.78 30.94 100.07 29.88L100.07 23.44C100.78 22.48 102.31 21.47 103.94 21.47C107 21.47 109.35 23.39 109.35 26.66C109.35 29.93 107 31.85 103.94 31.85ZM91.5 17.2C92.89 17.2 93.6 17.44 93.6 17.44L93.6 21.71C93.6 21.71 89.78 20.42 87.38 23.15L87.38 35.79L82.79 35.79L82.79 17.68C82.79 17.68 86.33 17.68 86.66 17.68C87.05 17.68 87.33 18.01 87.33 18.35L87.33 19.12C88.2 18.11 90.06 17.2 91.5 17.2ZM43.78 34.11C43.55 33.53 43.31 32.91 43.07 32.38C42.68 31.51 42.3 30.7 41.97 29.93L41.92 29.88C38.62 22.67 35.07 15.37 31.34 8.16L31.2 7.87C30.82 7.15 30.43 6.39 30.05 5.62C29.57 4.75 29.09 3.84 28.33 2.97C26.8 1.05 24.59 0 22.25 0C19.86 0 17.7 1.05 16.12 2.88C15.41 3.74 14.88 4.66 14.4 5.52C14.02 6.29 13.63 7.06 13.25 7.78L13.11 8.07C9.42 15.27 5.83 22.58 2.53 29.78L2.48 29.88C2.15 30.65 1.77 31.47 1.38 32.33C1.14 32.86 0.9 33.44 0.67 34.06C0.04 35.84 -0.15 37.52 0.09 39.25C0.62 42.85 3.01 45.88 6.31 47.23C7.56 47.75 8.85 48 10.19 48C10.57 48 11.05 47.95 11.43 47.9C13.01 47.71 14.64 47.18 16.22 46.27C18.18 45.16 20.05 43.57 22.15 41.27C24.26 43.57 26.17 45.16 28.09 46.27C29.67 47.18 31.29 47.71 32.87 47.9C33.26 47.95 33.73 48 34.12 48C35.46 48 36.8 47.75 37.99 47.23C41.34 45.88 43.69 42.81 44.22 39.25C44.6 37.57 44.41 35.89 43.78 34.11ZM22.2 36.61C19.62 33.34 17.94 30.27 17.37 27.67C17.13 26.57 17.08 25.6 17.22 24.74C17.32 23.97 17.61 23.3 17.99 22.72C18.9 21.42 20.43 20.61 22.2 20.61C23.97 20.61 25.55 21.38 26.41 22.72C26.8 23.3 27.08 23.97 27.18 24.74C27.32 25.6 27.27 26.61 27.03 27.67C26.46 30.22 24.79 33.29 22.2 36.61ZM41.3 38.87C40.96 41.36 39.29 43.53 36.94 44.49C35.79 44.97 34.55 45.11 33.3 44.97C32.11 44.82 30.91 44.44 29.67 43.72C27.94 42.76 26.22 41.27 24.21 39.06C27.37 35.17 29.28 31.61 30 28.44C30.34 26.95 30.38 25.6 30.24 24.36C30.05 23.15 29.62 22.05 28.95 21.09C27.47 18.93 24.98 17.68 22.2 17.68C19.43 17.68 16.94 18.97 15.45 21.09C14.78 22.05 14.35 23.15 14.16 24.36C13.97 25.6 14.02 27 14.4 28.44C15.12 31.61 17.08 35.21 20.19 39.11C18.23 41.32 16.46 42.81 14.74 43.77C13.49 44.49 12.29 44.87 11.1 45.02C9.81 45.16 8.56 44.97 7.46 44.54C5.12 43.57 3.44 41.41 3.11 38.91C2.96 37.71 3.06 36.51 3.54 35.17C3.68 34.69 3.92 34.21 4.16 33.63C4.49 32.86 4.88 32.04 5.26 31.23L5.31 31.13C8.61 23.97 12.15 16.67 15.84 9.56L15.98 9.27C16.36 8.55 16.75 7.78 17.13 7.06C17.51 6.29 17.94 5.57 18.47 4.94C19.47 3.79 20.81 3.17 22.3 3.17C23.78 3.17 25.12 3.79 26.13 4.94C26.65 5.57 27.08 6.29 27.47 7.06C27.85 7.78 28.23 8.55 28.61 9.27L28.76 9.56C32.39 16.72 35.94 24.02 39.24 31.18L39.24 31.23C39.62 32 39.96 32.86 40.34 33.63C40.58 34.21 40.82 34.69 40.96 35.17C41.34 36.42 41.49 37.62 41.3 38.87Z" fill="#999999" fill-opacity="1.000000" fill-rule="nonzero"/>
	</g>
</svg>
