<svg width="159.000000" height="48.000000" viewBox="0 0 159 48" fill="none" xmlns="http://www.w3.org/2000/svg" xmlns:xlink="http://www.w3.org/1999/xlink">
	<desc>
			Created with Pixso.
	</desc>
	<defs>
		<clipPath id="clip32_909">
			<rect id="Amazon Logo" width="159.468445" height="48.000000" transform="translate(-0.468506 0.000000)" fill="white" fill-opacity="0"/>
		</clipPath>
	</defs>
	<rect id="Amazon Logo" width="159.468445" height="48.000000" transform="translate(-0.468506 0.000000)" fill="#FFFFFF" fill-opacity="0"/>
	<g clip-path="url(#clip32_909)">
		<path id="path8" d="M98.46 37.53C89.19 44.36 75.76 48 64.19 48C47.98 48 33.38 42 22.34 32.04C21.47 31.26 22.25 30.19 23.29 30.8C35.21 37.73 49.94 41.89 65.17 41.89C75.43 41.89 86.73 39.77 97.11 35.37C98.68 34.7 99.99 36.4 98.46 37.53Z" fill="#999999" fill-opacity="1.000000" fill-rule="evenodd"/>
		<path id="path10" d="M102.31 33.13C101.13 31.62 94.48 32.42 91.5 32.77C90.59 32.88 90.45 32.09 91.27 31.52C96.56 27.8 105.25 28.87 106.27 30.12C107.28 31.38 106 40.08 101.03 44.23C100.26 44.87 99.53 44.53 99.87 43.68C100.99 40.9 103.5 34.65 102.31 33.13Z" fill="#999999" fill-opacity="1.000000" fill-rule="evenodd"/>
		<path id="path12" d="M91.7 5.24L91.7 1.62C91.7 1.07 92.12 0.7 92.62 0.7L108.84 0.7C109.36 0.7 109.78 1.08 109.78 1.62L109.78 4.72C109.77 5.24 109.34 5.92 108.56 6.99L100.15 18.98C103.28 18.9 106.57 19.37 109.4 20.96C110.04 21.32 110.22 21.85 110.27 22.37L110.27 26.23C110.27 26.76 109.68 27.38 109.07 27.06C104.08 24.44 97.45 24.16 91.93 27.08C91.37 27.39 90.78 26.78 90.78 26.25L90.78 22.58C90.78 21.99 90.79 20.99 91.38 20.1L101.12 6.14L92.64 6.14C92.12 6.14 91.7 5.78 91.7 5.24Z" fill="#999999" fill-opacity="1.000000" fill-rule="evenodd"/>
		<path id="path14" d="M32.53 27.82L27.59 27.82C27.12 27.78 26.74 27.43 26.71 26.98L26.71 1.68C26.71 1.17 27.13 0.77 27.66 0.77L32.26 0.77C32.74 0.79 33.12 1.16 33.16 1.62L33.16 4.92L33.25 4.92C34.45 1.73 36.71 0.24 39.75 0.24C42.84 0.24 44.76 1.73 46.15 4.92C47.35 1.73 50.06 0.24 52.97 0.24C55.04 0.24 57.3 1.09 58.68 3C60.24 5.13 59.93 8.22 59.93 10.94L59.92 26.9C59.92 27.41 59.49 27.82 58.97 27.82L54.04 27.82C53.55 27.78 53.15 27.39 53.15 26.9L53.15 13.49C53.15 12.43 53.25 9.76 53.01 8.75C52.64 7.05 51.54 6.57 50.11 6.57C48.92 6.57 47.67 7.37 47.16 8.65C46.65 9.92 46.7 12.06 46.7 13.49L46.7 26.9C46.7 27.41 46.28 27.82 45.75 27.82L40.82 27.82C40.32 27.78 39.93 27.39 39.93 26.9L39.93 13.49C39.93 10.67 40.39 6.52 36.89 6.52C33.34 6.52 33.48 10.57 33.48 13.49L33.48 26.9C33.48 27.41 33.05 27.82 32.53 27.82L32.53 27.82Z" fill="#999999" fill-opacity="1.000000" fill-rule="evenodd"/>
		<path id="path16" d="M123.75 0.24C131.07 0.24 135.03 6.52 135.03 14.51C135.03 22.22 130.65 28.35 123.75 28.35C116.55 28.35 112.64 22.06 112.64 14.24C112.64 6.36 116.6 0.24 123.75 0.24ZM123.79 5.4C120.15 5.4 119.92 10.35 119.92 13.44C119.92 16.53 119.87 23.13 123.75 23.13C127.57 23.13 127.75 17.81 127.75 14.56C127.75 12.43 127.66 9.88 127.02 7.85C126.46 6.09 125.36 5.4 123.79 5.4Z" fill="#999999" fill-opacity="1.000000" fill-rule="evenodd"/>
		<path id="path18" d="M144.53 27.82L139.61 27.82C139.12 27.78 138.73 27.39 138.73 26.9L138.72 1.6C138.76 1.13 139.17 0.77 139.67 0.77L144.24 0.77C144.67 0.79 145.03 1.08 145.13 1.48L145.13 5.35L145.22 5.35C146.6 1.89 148.53 0.24 151.94 0.24C154.16 0.24 156.32 1.04 157.7 3.22C159 5.24 159 8.65 159 11.1L159 27.02C158.94 27.47 158.53 27.82 158.04 27.82L153.1 27.82C152.64 27.78 152.27 27.45 152.22 27.02L152.22 13.28C152.22 10.51 152.54 6.46 149.13 6.46C147.93 6.46 146.83 7.27 146.28 8.49C145.58 10.03 145.49 11.57 145.49 13.28L145.49 26.9C145.49 27.41 145.06 27.82 144.53 27.82Z" fill="#999999" fill-opacity="1.000000" fill-rule="evenodd"/>
		<path id="path28" d="M78.77 15.73C78.77 17.65 78.82 19.26 77.85 20.96C77.06 22.35 75.81 23.2 74.43 23.2C72.54 23.2 71.43 21.76 71.43 19.63C71.43 15.43 75.2 14.67 78.77 14.67L78.77 15.73ZM83.75 27.75C83.42 28.04 82.95 28.06 82.58 27.87C80.94 26.51 80.65 25.88 79.75 24.58C77.04 27.34 75.12 28.17 71.61 28.17C67.46 28.17 64.23 25.61 64.23 20.48C64.23 16.48 66.39 13.76 69.49 12.43C72.17 11.25 75.91 11.04 78.77 10.71L78.77 10.08C78.77 8.9 78.86 7.52 78.17 6.51C77.57 5.6 76.42 5.22 75.4 5.22C73.52 5.22 71.84 6.19 71.43 8.18C71.35 8.63 71.02 9.06 70.57 9.08L65.79 8.57C65.39 8.48 64.94 8.16 65.05 7.54C66.15 1.74 71.4 0 76.09 0C78.49 0 81.63 0.63 83.53 2.45C85.93 4.69 85.7 7.68 85.7 10.93L85.7 18.61C85.7 20.92 86.66 21.93 87.56 23.18C87.87 23.62 87.94 24.16 87.54 24.49C86.53 25.33 84.74 26.89 83.76 27.76L83.75 27.75L83.75 27.75Z" fill="#999999" fill-opacity="1.000000" fill-rule="evenodd"/>
		<path id="path30" d="M14.07 15.73C14.07 17.65 14.12 19.26 13.15 20.96C12.36 22.35 11.12 23.2 9.73 23.2C7.84 23.2 6.73 21.76 6.73 19.63C6.73 15.43 10.5 14.67 14.07 14.67L14.07 15.73ZM19.05 27.75C18.72 28.04 18.25 28.06 17.88 27.87C16.24 26.51 15.95 25.88 15.05 24.58C12.34 27.34 10.42 28.17 6.91 28.17C2.76 28.17 -0.47 25.61 -0.47 20.48C-0.47 16.48 1.7 13.76 4.79 12.43C7.47 11.25 11.21 11.04 14.07 10.71L14.07 10.08C14.07 8.9 14.16 7.52 13.47 6.51C12.87 5.6 11.72 5.22 10.7 5.22C8.82 5.22 7.14 6.19 6.73 8.18C6.65 8.63 6.32 9.06 5.88 9.08L1.09 8.57C0.69 8.48 0.24 8.16 0.35 7.54C1.46 1.74 6.7 6.1e-5 11.39 6.1e-5C13.79 6.1e-5 16.93 0.63 18.82 2.45C21.23 4.69 21 7.68 21 10.93L21 18.61C21 20.92 21.95 21.93 22.86 23.18C23.18 23.62 23.25 24.16 22.84 24.49C21.84 25.33 20.05 26.89 19.06 27.76L19.05 27.75L19.05 27.75Z" fill="#999999" fill-opacity="1.000000" fill-rule="evenodd"/>
	</g>
</svg>
