<svg width="146.000000" height="48.000000" viewBox="0 0 146 48" fill="none" xmlns="http://www.w3.org/2000/svg" xmlns:xlink="http://www.w3.org/1999/xlink">
	<desc>
			Created with Pixso.
	</desc>
	<defs>
		<clipPath id="clip32_892">
			<rect id="Google Logo" width="146.285721" height="48.000000" transform="translate(-0.461060 0.000000)" fill="white" fill-opacity="0"/>
		</clipPath>
	</defs>
	<rect id="Google Logo" width="146.285721" height="48.000000" transform="translate(-0.461060 0.000000)" fill="#FFFFFF" fill-opacity="0"/>
	<g clip-path="url(#clip32_892)">
		<path id="Vector" d="M141.26 29.33L145.32 32.04C144 33.98 140.85 37.3 135.41 37.3C128.64 37.3 123.61 32.07 123.61 25.41C123.61 18.33 128.7 13.52 134.84 13.52C141.01 13.52 144.04 18.44 145.02 21.09L145.55 22.44L129.64 29.03C130.85 31.41 132.74 32.62 135.41 32.62C138.08 32.62 139.93 31.31 141.26 29.33ZM128.79 25.04L139.41 20.63C138.83 19.15 137.08 18.1 135 18.1C132.35 18.1 128.66 20.45 128.79 25.04Z" fill="#999999" fill-opacity="1.000000" fill-rule="nonzero"/>
		<path id="Vector" d="M115.94 1.4L121.06 1.4L121.06 36.22L115.94 36.22L115.94 1.4Z" fill="#999999" fill-opacity="1.000000" fill-rule="nonzero"/>
		<path id="Vector" d="M107.86 14.45L112.8 14.45L112.8 35.59C112.8 44.37 107.62 47.98 101.5 47.98C95.73 47.98 92.26 44.1 90.96 40.95L95.5 39.07C96.32 41.01 98.3 43.3 101.5 43.3C105.44 43.3 107.86 40.86 107.86 36.31L107.86 34.6L107.68 34.6C106.5 36.02 104.26 37.3 101.41 37.3C95.47 37.3 90.02 32.12 90.02 25.45C90.02 18.74 95.47 13.51 101.41 13.51C104.24 13.51 106.5 14.77 107.68 16.16L107.86 16.16L107.86 14.45ZM108.21 25.45C108.21 21.25 105.42 18.19 101.86 18.19C98.26 18.19 95.24 21.25 95.24 25.45C95.24 29.6 98.26 32.6 101.86 32.6C105.42 32.62 108.21 29.6 108.21 25.45Z" fill="#999999" fill-opacity="1.000000" fill-rule="nonzero"/>
		<path id="Vector" d="M61.88 25.36C61.88 32.21 56.54 37.25 49.99 37.25C43.44 37.25 38.1 32.2 38.1 25.36C38.1 18.47 43.44 13.45 49.99 13.45C56.54 13.45 61.88 18.47 61.88 25.36ZM56.68 25.36C56.68 21.09 53.59 18.15 49.99 18.15C46.4 18.15 43.3 21.09 43.3 25.36C43.3 29.6 46.4 32.57 49.99 32.57C53.59 32.57 56.68 29.6 56.68 25.36Z" fill="#999999" fill-opacity="1.000000" fill-rule="nonzero"/>
		<path id="Vector" d="M87.85 25.41C87.85 32.27 82.51 37.3 75.96 37.3C69.41 37.3 64.07 32.27 64.07 25.41C64.07 18.53 69.41 13.52 75.96 13.52C82.51 13.52 87.85 18.51 87.85 25.41ZM82.63 25.41C82.63 21.14 79.54 18.21 75.94 18.21C72.35 18.21 69.25 21.14 69.25 25.41C69.25 29.65 72.35 32.62 75.94 32.62C79.56 32.62 82.63 29.63 82.63 25.41Z" fill="#999999" fill-opacity="1.000000" fill-rule="nonzero"/>
		<path id="Vector" d="M18.56 32.09C11.1 32.09 5.26 26.07 5.26 18.62C5.26 11.16 11.1 5.14 18.56 5.14C22.58 5.14 25.52 6.73 27.69 8.75L31.27 5.18C28.24 2.28 24.2 0.07 18.56 0.07C8.34 0.07 -0.25 8.4 -0.25 18.62C-0.25 28.83 8.34 37.16 18.56 37.16C24.08 37.16 28.24 35.35 31.5 31.96C34.85 28.62 35.88 23.92 35.88 20.11C35.88 18.92 35.74 17.69 35.58 16.78L18.56 16.78L18.56 21.73L30.68 21.73C30.32 24.83 29.35 26.94 27.9 28.39C26.16 30.15 23.4 32.09 18.56 32.09Z" fill="#999999" fill-opacity="1.000000" fill-rule="nonzero"/>
	</g>
</svg>
