<svg width="39.000000" height="24.000000" viewBox="0 0 39 24" fill="none" xmlns="http://www.w3.org/2000/svg" xmlns:xlink="http://www.w3.org/1999/xlink">
	<desc>
			Created with Pixso.
	</desc>
	<defs/>
	<path id="Vector" d="M1.73 15.45L7.02 20.74C7.02 20.74 7.03 20.74 7.03 20.75C7.03 20.75 7.04 20.75 7.04 20.76C8.58 22.3 10.62 23.25 12.79 23.46C14.96 23.66 17.14 23.09 18.94 21.86C20.74 23.09 22.91 23.66 25.08 23.46C27.25 23.25 29.29 22.3 30.83 20.76L36.12 15.47C37.77 13.82 38.74 11.62 38.85 9.29C38.95 6.96 38.19 4.68 36.7 2.89C35.21 1.1 33.1 -0.07 30.8 -0.39C28.49 -0.72 26.14 -0.16 24.22 1.15C22.67 0.09 20.82 -0.48 18.94 -0.48C17.05 -0.48 15.21 0.09 13.65 1.15C11.73 -0.17 9.39 -0.73 7.08 -0.42C4.77 -0.1 2.66 1.06 1.16 2.86C-0.33 4.65 -1.1 6.93 -1 9.26C-0.89 11.59 0.08 13.8 1.73 15.45ZM27.09 3.8C28.29 3.23 29.64 3.1 30.92 3.44C32.2 3.77 33.32 4.54 34.09 5.62C34.85 6.7 35.21 8.02 35.1 9.34C34.99 10.66 34.41 11.89 33.48 12.83L28.19 18.11C27.37 18.93 26.31 19.48 25.17 19.67C24.03 19.87 22.85 19.71 21.8 19.21L25.54 15.47C26.98 14.04 27.91 12.19 28.19 10.18C28.25 9.75 28.28 9.3 28.28 8.86C28.29 7.11 27.8 5.4 26.87 3.92C26.94 3.88 27.02 3.84 27.09 3.8L27.09 3.8ZM14.97 4.9C16.02 3.85 17.45 3.26 18.93 3.27C20.42 3.27 21.84 3.86 22.89 4.91C23.94 5.96 24.53 7.38 24.53 8.87C24.53 10.35 23.95 11.77 22.9 12.83L18.94 16.79L14.97 12.83C13.92 11.77 13.33 10.35 13.33 8.86C13.33 7.38 13.92 5.95 14.97 4.9L14.97 4.9ZM4.38 4.88C5.2 4.05 6.26 3.51 7.41 3.31C8.56 3.12 9.74 3.29 10.79 3.79C10.86 3.83 10.94 3.87 11.01 3.91C10.08 5.39 9.59 7.11 9.59 8.86C9.59 9.3 9.62 9.75 9.68 10.18C9.96 12.19 10.89 14.04 12.33 15.47L16.04 19.19L16.07 19.21C15.02 19.71 13.84 19.87 12.7 19.67C11.56 19.48 10.5 18.93 9.68 18.11C9.68 18.11 9.68 18.11 9.67 18.1C9.67 18.1 9.67 18.1 9.66 18.09L4.4 12.83L4.38 12.81C3.32 11.75 2.73 10.33 2.73 8.84C2.73 7.35 3.32 5.93 4.38 4.88L4.38 4.88Z" fill="#FFFFFF" fill-opacity="1.000000" fill-rule="nonzero"/>
</svg>
