<svg width="150.000000" height="29.000000" viewBox="0 0 150 29" fill="none" xmlns="http://www.w3.org/2000/svg" xmlns:xlink="http://www.w3.org/1999/xlink">
	<desc>
			Created with Pixso.
	</desc>
	<defs/>
	<path id="Vector" d="M2.73 17.95L8.02 23.24C8.02 23.24 8.03 23.24 8.03 23.25C8.03 23.25 8.04 23.25 8.04 23.26C9.58 24.8 11.62 25.75 13.79 25.96C15.96 26.16 18.14 25.59 19.94 24.36C21.74 25.59 23.91 26.16 26.08 25.96C28.25 25.75 30.29 24.8 31.83 23.26L37.12 17.97C38.77 16.32 39.74 14.12 39.85 11.79C39.95 9.46 39.19 7.18 37.7 5.39C36.21 3.6 34.1 2.43 31.8 2.11C29.49 1.78 27.14 2.34 25.22 3.65C23.67 2.59 21.82 2.02 19.94 2.02C18.05 2.02 16.21 2.59 14.65 3.65C12.73 2.33 10.39 1.77 8.08 2.08C5.77 2.4 3.66 3.56 2.16 5.36C0.67 7.15 -0.1 9.43 0 11.76C0.11 14.09 1.08 16.3 2.73 17.95ZM28.09 6.3C29.29 5.73 30.64 5.6 31.92 5.94C33.2 6.27 34.32 7.04 35.09 8.12C35.85 9.2 36.21 10.52 36.1 11.84C35.99 13.16 35.41 14.39 34.48 15.33L29.19 20.61C28.37 21.43 27.31 21.98 26.17 22.17C25.03 22.37 23.85 22.21 22.8 21.71L26.54 17.97C27.98 16.54 28.91 14.69 29.19 12.68C29.25 12.25 29.28 11.8 29.28 11.36C29.29 9.61 28.8 7.9 27.87 6.42C27.94 6.38 28.02 6.34 28.09 6.3L28.09 6.3ZM15.97 7.4C17.02 6.35 18.45 5.76 19.93 5.77C21.42 5.77 22.84 6.36 23.89 7.41C24.94 8.46 25.53 9.88 25.53 11.37C25.53 12.85 24.95 14.27 23.9 15.33L19.94 19.29L15.97 15.33C14.92 14.27 14.33 12.85 14.33 11.36C14.33 9.88 14.92 8.45 15.97 7.4L15.97 7.4ZM5.38 7.38C6.2 6.55 7.26 6.01 8.41 5.81C9.56 5.62 10.74 5.79 11.79 6.29C11.86 6.33 11.94 6.37 12.01 6.41C11.08 7.89 10.59 9.61 10.59 11.36C10.59 11.8 10.62 12.25 10.68 12.68C10.96 14.69 11.89 16.54 13.33 17.97L17.04 21.69L17.07 21.71C16.02 22.21 14.84 22.37 13.7 22.17C12.56 21.98 11.5 21.43 10.68 20.61C10.68 20.61 10.68 20.61 10.67 20.6C10.67 20.6 10.67 20.6 10.66 20.59L5.4 15.33L5.38 15.31C4.32 14.25 3.73 12.83 3.73 11.34C3.73 9.85 4.32 8.43 5.38 7.38L5.38 7.38Z" fill="#0077C0" fill-opacity="1.000000" fill-rule="nonzero"/>
	<path id="Wakanda" d="M56.29 22.53L52.84 22.53L48.36 5.62L52.03 5.62L54.7 17.73L54.77 17.73L57.89 5.62L60.99 5.62L64.11 17.73L64.18 17.73L66.86 5.62L70.53 5.62L66.04 22.53L62.59 22.53L59.48 11.19L59.41 11.19L56.29 22.53ZM87.24 22.53L83.82 22.53L83.82 5.62L87.24 5.62L87.24 14.99L87.31 14.99L91.55 9.96L95.43 9.96L90.69 15.37L95.67 22.53L91.72 22.53L88.12 17.39L87.24 18.37L87.24 22.53ZM132.04 20.38C131.38 21.87 129.99 22.78 128.18 22.78C125.01 22.78 123.07 20.32 123.07 16.25L123.07 16.23C123.07 12.14 125.01 9.71 128.18 9.71C129.96 9.71 131.36 10.62 132.04 12.14L132.11 12.14L132.11 5.62L135.53 5.62L135.53 22.53L132.11 22.53L132.11 20.38L132.04 20.38ZM78 20.65C77.28 21.94 75.95 22.73 74.29 22.73C71.77 22.73 70.07 21.14 70.07 18.93L70.07 18.91C70.07 16.62 71.84 15.28 74.96 15.08L78.07 14.9L78.07 14.12C78.07 13.01 77.34 12.32 76 12.32C74.73 12.32 73.95 12.92 73.79 13.73L73.77 13.83L70.64 13.83L70.65 13.69C70.84 11.37 72.83 9.71 76.14 9.71C79.39 9.71 81.49 11.38 81.49 13.91L81.49 22.53L78.07 22.53L78.07 20.65L78 20.65ZM103.99 20.65C103.27 21.94 101.94 22.73 100.29 22.73C97.77 22.73 96.07 21.14 96.07 18.93L96.07 18.91C96.07 16.62 97.84 15.28 100.95 15.08L104.06 14.9L104.06 14.12C104.06 13.01 103.33 12.32 102 12.32C100.72 12.32 99.95 12.92 99.78 13.73L99.76 13.83L96.63 13.83L96.64 13.69C96.83 11.37 98.82 9.71 102.14 9.71C105.38 9.71 107.48 11.38 107.48 13.91L107.48 22.53L104.06 22.53L104.06 20.65L103.99 20.65ZM113.12 22.53L109.7 22.53L109.7 9.96L113.12 9.96L113.12 12.03L113.19 12.03C113.83 10.58 115.12 9.71 117.02 9.71C119.79 9.71 121.36 11.48 121.36 14.42L121.36 22.53L117.93 22.53L117.93 15.12C117.93 13.48 117.16 12.54 115.63 12.54C114.09 12.54 113.12 13.67 113.12 15.31L113.12 22.53ZM145.26 20.65C144.55 21.94 143.21 22.73 141.56 22.73C139.04 22.73 137.34 21.14 137.34 18.93L137.34 18.91C137.34 16.62 139.11 15.28 142.23 15.08L145.33 14.9L145.33 14.12C145.33 13.01 144.61 12.32 143.27 12.32C141.99 12.32 141.22 12.92 141.05 13.73L141.03 13.83L137.9 13.83L137.91 13.69C138.1 11.37 140.09 9.71 143.41 9.71C146.66 9.71 148.75 11.38 148.75 13.91L148.75 22.53L145.33 22.53L145.33 20.65L145.26 20.65ZM126.55 16.25C126.55 18.53 127.61 19.95 129.32 19.95C130.99 19.95 132.13 18.52 132.13 16.25L132.13 16.23C132.13 13.97 130.98 12.54 129.32 12.54C127.63 12.54 126.55 13.94 126.55 16.23L126.55 16.25ZM73.46 18.73L73.46 18.75C73.46 19.68 74.22 20.23 75.41 20.23C76.94 20.23 78.07 19.25 78.07 17.93L78.07 17.03L75.48 17.19C74.15 17.28 73.46 17.84 73.46 18.73ZM99.45 18.73L99.45 18.75C99.45 19.68 100.22 20.23 101.4 20.23C102.93 20.23 104.06 19.25 104.06 17.93L104.06 17.03L101.47 17.19C100.14 17.28 99.45 17.84 99.45 18.73ZM140.73 18.73L140.73 18.75C140.73 19.68 141.49 20.23 142.67 20.23C144.21 20.23 145.33 19.25 145.33 17.93L145.33 17.03L142.74 17.19C141.42 17.28 140.73 17.84 140.73 18.73Z" fill="#000000" fill-opacity="1.000000" fill-rule="evenodd"/>
</svg>
