<svg width="178.000000" height="48.000000" viewBox="0 0 178 48" fill="none" xmlns="http://www.w3.org/2000/svg" xmlns:xlink="http://www.w3.org/1999/xlink">
	<desc>
			Created with Pixso.
	</desc>
	<defs>
		<clipPath id="clip32_907">
			<rect id="Netflix  Logo" width="177.444046" height="48.000000" transform="translate(-0.259949 0.000000)" fill="white" fill-opacity="0"/>
		</clipPath>
	</defs>
	<rect id="Netflix  Logo" width="177.444046" height="48.000000" transform="translate(-0.259949 0.000000)" fill="#FFFFFF" fill-opacity="0"/>
	<g clip-path="url(#clip32_907)">
		<path id="Vector" d="M24.13 44.9C21.46 45.37 18.75 45.51 15.94 45.89L7.37 20.76L7.37 46.96C4.7 47.25 2.26 47.62 -0.26 48L-0.26 0L6.85 0L16.59 27.23L16.59 0L24.13 0L24.13 44.9ZM38.89 17.57C41.79 17.57 46.24 17.43 48.91 17.43L48.91 24.93C45.58 24.93 41.7 24.93 38.89 25.07L38.89 36.23C43.29 35.95 47.69 35.57 52.14 35.43L52.14 42.65L31.39 44.29L31.39 0L52.14 0L52.14 7.5L38.89 7.5L38.89 17.57ZM80 7.5L72.23 7.5L72.23 42C69.7 42 67.17 42 64.74 42.09L64.74 7.5L56.96 7.5L56.96 0L80 0L80 7.5ZM92.18 17.06L102.44 17.06L102.44 24.56L92.18 24.56L92.18 41.57L84.83 41.57L84.83 0L105.76 0L105.76 7.5L92.18 7.5L92.18 17.06ZM117.94 35.01C122.2 35.1 126.51 35.43 130.67 35.67L130.67 43.07C123.98 42.65 117.28 42.23 110.44 42.09L110.44 0L117.94 0L117.94 35.01ZM137 43.59C139.39 43.73 141.92 43.87 144.35 44.15L144.35 0L137 0L137 43.59ZM177.18 0L167.67 22.82L177.18 48C174.37 47.62 171.56 47.1 168.75 46.64L163.36 32.76L157.89 45.51C155.17 45.04 152.55 44.9 149.83 44.53L159.48 22.54L150.77 0L158.82 0L163.74 12.6L168.98 0L177.18 0L177.18 0Z" fill="#999999" fill-opacity="1.000000" fill-rule="nonzero"/>
	</g>
</svg>
