<svg width="188.000000" height="48.000000" viewBox="0 0 188 48" fill="none" xmlns="http://www.w3.org/2000/svg" xmlns:xlink="http://www.w3.org/1999/xlink">
	<desc>
			Created with Pixso.
	</desc>
	<defs>
		<clipPath id="clip32_900">
			<rect id="Slack Logo" width="188.220474" height="48.000000" transform="translate(-0.827881 0.000000)" fill="white" fill-opacity="0"/>
		</clipPath>
	</defs>
	<rect id="Slack Logo" width="188.220474" height="48.000000" transform="translate(-0.827881 0.000000)" fill="#FFFFFF" fill-opacity="0"/>
	<g clip-path="url(#clip32_900)">
		<path id="Vector" d="M59.45 37.6L61.79 32.16C64.33 34.05 67.69 35.03 71.02 35.03C73.47 35.03 75.02 34.09 75.02 32.65C74.98 28.64 60.32 31.78 60.21 21.73C60.17 16.62 64.7 12.69 71.13 12.69C74.95 12.69 78.76 13.64 81.49 15.79L79.29 21.35C76.8 19.76 73.7 18.63 70.75 18.63C68.75 18.63 67.43 19.57 67.43 20.78C67.46 24.71 82.24 22.56 82.39 32.16C82.39 37.37 77.97 41.04 71.62 41.04C66.97 41.04 62.7 39.94 59.45 37.6ZM149.37 30.19C148.19 32.23 146 33.63 143.47 33.63C139.73 33.63 136.7 30.61 136.7 26.87C136.7 23.13 139.73 20.1 143.47 20.1C146 20.1 148.19 21.5 149.37 23.54L155.83 19.95C153.41 15.64 148.76 12.69 143.47 12.69C135.65 12.69 129.3 19.04 129.3 26.87C129.3 34.69 135.65 41.04 143.47 41.04C148.8 41.04 153.41 38.13 155.83 33.78L149.37 30.19ZM85.64 0.94L93.73 0.94L93.73 40.51L85.64 40.51L85.64 0.94ZM159 0.94L159 40.51L167.09 40.51L167.09 28.64L176.69 40.51L187.05 40.51L174.84 26.41L186.14 13.26L176.24 13.26L167.09 24.18L167.09 0.94L159 0.94ZM117.77 30.27C116.6 32.2 114.18 33.63 111.46 33.63C107.72 33.63 104.69 30.61 104.69 26.87C104.69 23.13 107.72 20.1 111.46 20.1C114.18 20.1 116.6 21.61 117.77 23.58L117.77 30.27ZM117.77 13.26L117.77 16.47C116.45 14.24 113.16 12.69 109.72 12.69C102.61 12.69 97.02 18.97 97.02 26.83C97.02 34.69 102.61 41.04 109.72 41.04C113.16 41.04 116.45 39.49 117.77 37.26L117.77 40.47L125.86 40.47L125.86 13.26L117.77 13.26Z" fill="#999999" fill-opacity="1.000000" fill-rule="nonzero"/>
		<path id="Vector" d="M9.45 30.23C9.45 32.99 7.22 35.22 4.46 35.22C1.7 35.22 -0.53 32.99 -0.53 30.23C-0.53 27.47 1.7 25.24 4.46 25.24L9.45 25.24L9.45 30.23ZM11.94 30.23C11.94 27.47 14.17 25.24 16.93 25.24C19.69 25.24 21.92 27.47 21.92 30.23L21.92 42.7C21.92 45.46 19.69 47.69 16.93 47.69C14.17 47.69 11.94 45.46 11.94 42.7L11.94 30.23Z" fill="#999999" fill-opacity="1.000000" fill-rule="nonzero"/>
		<path id="Vector" d="M16.93 10.2C14.17 10.2 11.94 7.97 11.94 5.21C11.94 2.45 14.17 0.22 16.93 0.22C19.69 0.22 21.92 2.45 21.92 5.21L21.92 10.2L16.93 10.2ZM16.93 12.73C19.69 12.73 21.92 14.96 21.92 17.72C21.92 20.48 19.69 22.71 16.93 22.71L4.42 22.71C1.66 22.71 -0.57 20.48 -0.57 17.72C-0.57 14.96 1.66 12.73 4.42 12.73L16.93 12.73Z" fill="#999999" fill-opacity="1.000000" fill-rule="nonzero"/>
		<path id="Vector" d="M36.92 17.72C36.92 14.96 39.15 12.73 41.91 12.73C44.67 12.73 46.9 14.96 46.9 17.72C46.9 20.48 44.67 22.71 41.91 22.71L36.92 22.71L36.92 17.72ZM34.43 17.72C34.43 20.48 32.2 22.71 29.44 22.71C26.68 22.71 24.45 20.48 24.45 17.72L24.45 5.21C24.45 2.45 26.68 0.22 29.44 0.22C32.2 0.22 34.43 2.45 34.43 5.21L34.43 17.72Z" fill="#999999" fill-opacity="1.000000" fill-rule="nonzero"/>
		<path id="Vector" d="M29.44 37.71C32.2 37.71 34.43 39.94 34.43 42.7C34.43 45.46 32.2 47.69 29.44 47.69C26.68 47.69 24.45 45.46 24.45 42.7L24.45 37.71L29.44 37.71ZM29.44 35.22C26.68 35.22 24.45 32.99 24.45 30.23C24.45 27.47 26.68 25.24 29.44 25.24L41.95 25.24C44.71 25.24 46.94 27.47 46.94 30.23C46.94 32.99 44.71 35.22 41.95 35.22L29.44 35.22Z" fill="#999999" fill-opacity="1.000000" fill-rule="nonzero"/>
	</g>
</svg>
